<?xml version="1.0" encoding="UTF-8" standalone="no"?>
<!DOCTYPE svg PUBLIC "-//W3C//DTD SVG 1.0//EN" "http://www.w3.org/TR/2001/REC-SVG-20010904/DTD/svg10.dtd">
<svg xmlns="http://www.w3.org/2000/svg" version="1.0" viewBox="0.00 0.00 352.00 335.00">
<g stroke-width="1.00" fill="none" stroke-linecap="butt">
<path stroke="#808080" vector-effect="non-scaling-stroke" d="
  M 86.01 205.22
  L 228.92 205.22
  A 0.68 0.68 0.0 0 1 229.54 205.62
  L 286.55 332.41
  A 0.46 0.45 -11.8 0 0 286.97 332.68
  L 335.01 332.69
  A 0.32 0.32 0.0 0 0 335.30 332.23
  L 271.27 201.78
  A 0.43 0.43 0.0 0 1 271.58 201.17
  C 295.16 196.69 318.10 186.61 331.79 166.48
  Q 340.69 153.38 344.01 138.05
  Q 351.56 103.22 343.92 69.41
  Q 338.98 47.57 324.41 32.32
  C 307.12 14.22 280.97 7.07 256.56 4.34
  Q 241.41 2.64 225.36 2.64
  Q 134.80 2.63 44.20 2.63
  A 0.36 0.36 0.0 0 0 43.84 2.99
  L 43.84 171.00
  Q 43.84 171.39 43.46 171.39
  L 6.75 171.37
  A 0.35 0.34 90.0 0 0 6.41 171.72
  L 6.41 204.82
  Q 6.41 205.22 6.81 205.22
  L 43.28 205.22
  Q 43.84 205.22 43.84 205.78
  L 43.86 242.20
  A 0.43 0.43 0.0 0 1 43.43 242.63
  L 6.78 242.61
  A 0.36 0.36 0.0 0 0 6.42 242.97
  L 6.41 275.87
  A 0.57 0.57 0.0 0 0 6.98 276.45
  L 43.52 276.45
  Q 43.85 276.45 43.85 276.78
  L 43.83 332.26
  A 0.43 0.42 0.0 0 0 44.26 332.68
  L 84.65 332.69
  Q 85.23 332.69 85.23 332.10
  L 85.23 276.98
  Q 85.23 276.45 85.77 276.45
  L 193.49 276.45
  A 0.39 0.39 0.0 0 0 193.88 276.02
  L 190.22 242.96
  A 0.38 0.38 0.0 0 0 189.84 242.62
  L 85.59 242.62
  A 0.36 0.35 -0.0 0 1 85.23 242.27
  L 85.23 205.99
  Q 85.23 205.22 86.01 205.22"
/>
<path stroke="#808080" vector-effect="non-scaling-stroke" d="
  M 286.75 158.96
  C 297.47 151.47 302.84 139.13 304.77 126.26
  Q 307.71 106.67 305.33 85.53
  Q 304.57 78.77 302.53 71.81
  C 296.68 51.83 281.46 42.72 261.77 39.30
  Q 246.09 36.58 230.15 36.55
  Q 162.30 36.38 85.77 36.49
  Q 85.23 36.49 85.23 37.02
  L 85.23 170.77
  Q 85.23 171.38 85.84 171.38
  Q 153.57 171.37 222.02 171.39
  Q 235.84 171.39 249.45 170.20
  C 262.26 169.07 276.29 166.26 286.75 158.96"
/>
</g>

<path fill="#000000" d="
  M 85.23 205.99
  L 85.23 242.27
  A 0.36 0.35 -0.0 0 0 85.59 242.62
  L 189.84 242.62
  A 0.38 0.38 0.0 0 1 190.22 242.96
  L 193.88 276.02
  A 0.39 0.39 0.0 0 1 193.49 276.45
  L 85.77 276.45
  Q 85.23 276.45 85.23 276.98
  L 85.23 332.10
  Q 85.23 332.69 84.65 332.69
  L 44.26 332.68
  A 0.43 0.42 0.0 0 1 43.83 332.26
  L 43.85 276.78
  Q 43.85 276.45 43.52 276.45
  L 6.98 276.45
  A 0.57 0.57 0.0 0 1 6.41 275.87
  L 6.42 242.97
  A 0.36 0.36 0.0 0 1 6.78 242.61
  L 43.43 242.63
  A 0.43 0.43 0.0 0 0 43.86 242.20
  L 43.84 205.78
  Q 43.84 205.22 43.28 205.22
  L 6.81 205.22
  Q 6.41 205.22 6.41 204.82
  L 6.41 171.72
  A 0.35 0.34 -90.0 0 1 6.75 171.37
  L 43.46 171.39
  Q 43.84 171.39 43.84 171.00
  L 43.84 2.99
  A 0.36 0.36 0.0 0 1 44.20 2.63
  Q 134.80 2.63 225.36 2.64
  Q 241.41 2.64 256.56 4.34
  C 280.97 7.07 307.12 14.22 324.41 32.32
  Q 338.98 47.57 343.92 69.41
  Q 351.56 103.22 344.01 138.05
  Q 340.69 153.38 331.79 166.48
  C 318.10 186.61 295.16 196.69 271.58 201.17
  A 0.43 0.43 0.0 0 0 271.27 201.78
  L 335.30 332.23
  A 0.32 0.32 0.0 0 1 335.01 332.69
  L 286.97 332.68
  A 0.46 0.45 -11.8 0 1 286.55 332.41
  L 229.54 205.62
  A 0.68 0.68 0.0 0 0 228.92 205.22
  L 86.01 205.22
  Q 85.23 205.22 85.23 205.99
  Z
  M 286.75 158.96
  C 297.47 151.47 302.84 139.13 304.77 126.26
  Q 307.71 106.67 305.33 85.53
  Q 304.57 78.77 302.53 71.81
  C 296.68 51.83 281.46 42.72 261.77 39.30
  Q 246.09 36.58 230.15 36.55
  Q 162.30 36.38 85.77 36.49
  Q 85.23 36.49 85.23 37.02
  L 85.23 170.77
  Q 85.23 171.38 85.84 171.38
  Q 153.57 171.37 222.02 171.39
  Q 235.84 171.39 249.45 170.20
  C 262.26 169.07 276.29 166.26 286.75 158.96
  Z"
/>

</svg>
