<?xml version="1.0" ?><svg viewBox="0 0 278.43 295.28" xmlns="http://www.w3.org/2000/svg"><title/><g data-name="Capa 2" id="Capa_2"><g data-name="Capa 1" id="Capa_1-2"><path d="M277.1,173.59l-69.33-68.71C202,99.11,195.61,93.6,187.29,92.73c6.51-18.71,5.59-36.89-2.74-55.26a82.23,82.23,0,0,0-17-24.83C158.87,4.25,149.35,0,139.28,0,113,0,98,28.68,94,37.47c-8.3,18.29-9.24,36.39-2.83,55-8.34.86-14.69,6.38-20.51,12.15L1.34,173.35a4.5,4.5,0,0,0-.34,6L21.07,204.3a4.5,4.5,0,0,0,3,1.65,4.44,4.44,0,0,0,3.32-1l49.42-40.56-14.44,109a4.55,4.55,0,0,0,1,3.47C64,277.61,79,295,126.21,295a4.51,4.51,0,0,0,4.5-4.5V278.61h17v12.17a4.5,4.5,0,0,0,4.5,4.5c47.17,0,62.18-17.43,62.8-18.17a4.47,4.47,0,0,0,1-3.46l-14.43-109L251,205.2a4.53,4.53,0,0,0,3.32,1,4.47,4.47,0,0,0,3-1.66l20.07-24.93A4.51,4.51,0,0,0,277.1,173.59Zm-23.89,21.77-54.72-44.91a4.5,4.5,0,0,0-7.32,4.07l15.64,118.12c-5.77,5.09-21.69,12.83-50.08,13.58V156.57a4.5,4.5,0,0,0-9,0v113h-17V156.32a4.5,4.5,0,0,0-9,0V286c-28.43-.75-44.36-8.52-50.09-13.58L87.27,154.27A4.51,4.51,0,0,0,80,150.2L25.23,195.12,10.56,176.88,77,111c6.61-6.56,11.61-10.14,17.82-9.58.49,1,1,2.09,1.52,3.13,6,11.89,11,16.86,25.94,16.86a4.5,4.5,0,0,0,0-9c-10.19,0-12.7-1.67-17.91-11.93q-1.26-2.49-2.34-5c-8.19-18.71-8.1-36.12.17-54.38C115.75,11.32,134,9,139.28,9s23.53,2.32,37.07,32.18c8.33,18.36,8.36,35.87,0,54.71a1.3,1.3,0,0,1-.08.17q-1,2.22-2.11,4.45c-5.21,10.26-7.72,11.93-17.91,11.93a4.5,4.5,0,0,0,0,9c15,0,19.9-5,25.94-16.86.49-1,.95-1.92,1.4-2.88,6.21-.56,11.21,3,17.82,9.57l66.44,65.86Z"/><path d="M159.57,105.6a7.87,7.87,0,0,1-6.82,2.18,2,2,0,0,0-.83,3.92,11.16,11.16,0,0,0,2,.18,11.73,11.73,0,0,0,8.4-3.41c5.25-5.26,6.18-15.81,2.76-31.34-7.6-34.51-11.79-47.55-25.79-47.55h-.11c-14,0-18.2,13-25.79,47.55-3.42,15.53-2.49,26.08,2.76,31.34a12,12,0,0,0,10.44,3.23,2,2,0,0,0-.84-3.92A7.83,7.83,0,0,1,119,105.6c-2.88-2.92-5.5-10.09-1.64-27.61,8-36.52,11.92-44.41,21.88-44.41h.11c9.95,0,13.84,7.89,21.88,44.41C165.07,95.51,162.45,102.68,159.57,105.6Z"/><path d="M125.87,124.88A52.54,52.54,0,0,0,101.5,170.6a2,2,0,0,0,2,1.93h.07a2,2,0,0,0,1.93-2.07A48.43,48.43,0,0,1,128,128.28a2,2,0,0,0-2.12-3.4Z"/><path d="M179.62,153.36a48.12,48.12,0,0,1-27-30.94,2,2,0,1,0-3.86,1A52.23,52.23,0,0,0,178.05,157a2,2,0,0,0,.78.16,2,2,0,0,0,.79-3.84Z"/><path d="M165.14,200.71a7,7,0,1,0-7-7A7,7,0,0,0,165.14,200.71Zm0-10a3,3,0,1,1-3,3A3,3,0,0,1,165.14,190.7Z"/><path d="M167.18,238a7,7,0,1,0-7-7A7,7,0,0,0,167.18,238Zm0-10a3,3,0,1,1-3,3A3,3,0,0,1,167.18,228Z"/><path d="M168.22,261.35a7,7,0,1,0,7,7A7,7,0,0,0,168.22,261.35Zm0,10a3,3,0,1,1,3-3A3,3,0,0,1,168.22,271.36Z"/></g></g></svg>