<?xml version="1.0" ?>
<!DOCTYPE svg PUBLIC '-//W3C//DTD SVG 1.1//EN' 'http://www.w3.org/Graphics/SVG/1.1/DTD/svg11.dtd'>
<svg enable-background="new 0 0 64 64" height="64px" id="Layer_1" version="1.1" viewBox="0 0 64 64" width="64px" xml:space="preserve" xmlns="http://www.w3.org/2000/svg" xmlns:xlink="http://www.w3.org/1999/xlink">
  <g id="phones">
    <g>
      <g>
        <rect fill="#000000" height="1" width="2" x="14" y="53" />
        <rect fill="#000000" height="2" width="2" x="22" y="53" />
        <g>
          <rect fill="#000000" height="1" width="1" x="30" y="53" />
        </g>
      </g>
      <rect fill="#000000" height="1" width="6" x="41" y="13" />
      <path d="M35,48v10h19V48H35z M47,49v2h-5v-2H47z M47,52v2h-5v-2H47z M36,49h5v2h-5V49z M36,52h5v2h-5V52z M36,57    v-2h5v2H36z M42,57v-2h5v2H42z M53,57h-5v-2h5V57z M53,54h-5v-2h5V54z M53,51h-5v-2h5V51z" fill="#000000" />
      <rect fill="#000000" height="1" width="3" x="36" y="45" />
      <rect fill="#000000" height="1" width="3" x="36" y="41" />
      <rect fill="#000000" height="1" width="3" x="50" y="45" />
      <rect fill="#000000" height="1" width="3" x="50" y="41" />
      <path d="M53,17v21H36V17H53L53,17z M54,16H35v23h19V16L54,16z" fill="#000000" />
      <path d="M54,11c0.542,0,1,0.458,1,1v47c0,0.542-0.458,1-1,1H35c-0.542,0-1-0.458-1-1V12c0-0.542,0.458-1,1-1H54    L54,11z M54,9H35c-1.65,0-3,1.35-3,3v47c0,1.65,1.35,3,3,3h19c1.65,0,3-1.35,3-3V12C57,10.35,55.65,9,54,9L54,9z" fill="#000000" />
      <path d="M47,41v5h-5v-5H47L47,41z M47,40h-5c-0.55,0-1,0.45-1,1v5c0,0.55,0.45,1,1,1h5c0.55,0,1-0.45,1-1v-5    C48,40.45,47.55,40,47,40L47,40z" fill="#000000" />
      <rect fill="#000000" height="1" width="1" x="19" y="6" />
      <rect fill="#000000" height="1" width="4" x="21" y="6" />
      <path d="M31,51H12V10h19.557c0.221-0.378,0.498-0.714,0.826-1H11v43h20V51z" fill="#000000" />
      <path d="M11,57c-0.552,0-1-0.449-1-1V5c0-0.551,0.448-1,1-1h24c0.552,0,1,0.449,1,1v3h2V5c0-1.654-1.346-3-3-3H11    C9.346,2,8,3.346,8,5v51c0,1.654,1.346,3,3,3h20v-2H11z" fill="#000000" />
    </g>
  </g>
</svg>